<?xml version="1.0" encoding="UTF-8" standalone="no"?>
<svg width="479px" height="123px" viewBox="0 0 479 123" version="1.1" xmlns="http://www.w3.org/2000/svg" xmlns:xlink="http://www.w3.org/1999/xlink">
    <!-- Generator: Sketch 41.2 (35397) - http://www.bohemiancoding.com/sketch -->
    <title>Artboard</title>
    <desc>Created with Sketch.</desc>
    <defs>
        <path d="M91.1597913,67.75 L83.8472913,67.75 L83.8472913,100.867187 C83.8472913,105.226584 77.6832384,98.2421772 75.7613538,100.304687 C72.4332122,100.304687 75.2691755,96.686663 73.4410413,94.5304022 C73.4410413,90.3585064 65.9879163,86.8033205 65.9879163,82.7368454 C65.9879163,72.2253152 54.8412192,61.1809637 62.9644788,57.1331714 C74.404632,51.4325824 76.7697164,40.2480441 73.4410413,32.2504622 C70.1123662,24.2528804 62.9644788,21.5546875 62.9644788,21.5546875 C62.9644788,17.054665 63.9722812,13.7968851 65.9879163,11.78125 C68.0035514,9.76561492 46.4006948,9.08009349 50.9007173,9.08009349 L109.722291,8.7578125 C114.409815,8.7578125 118.417587,8.95702926 121.745729,9.35546875 C125.07387,9.75390824 128.07384,10.5624939 130.745729,11.78125 C133.98012,13.1406318 136.839466,15.0859248 139.323854,17.6171875 C141.808241,20.1484502 143.694941,23.089827 144.98401,26.4414062 C146.273079,29.7929855 146.917604,33.3437313 146.917604,37.09375 C146.917604,44.7812884 144.749657,50.921852 140.413698,55.515625 C136.077738,60.109398 129.503585,63.3671779 120.691041,65.2890625 C124.394185,67.2578223 127.933212,70.1640433 131.308229,74.0078125 C134.683246,77.8515817 130.136341,90.194443 132.784791,94.5304022 C135.433242,98.8663614 138.937128,99.6260488 140.413698,103.118254 C141.890267,106.610459 148.745729,103.914056 148.745729,105.226562 C148.745729,106.585944 148.312139,107.933587 147.444948,109.269531 C146.577756,110.605475 146.484018,108.49609 144.98401,109.269531 C143.484003,110.042973 140.659801,109.144261 138.691041,109.144261 C136.34728,109.144261 134.378549,108.593486 132.784791,107.491918 C131.191033,106.39035 129.819953,104.995832 128.67151,103.308324 C127.523067,101.620816 125.964489,103.585954 123.995729,100.304687 L115.628541,86.3828125 C112.628526,81.273412 109.944959,77.3828259 107.57776,74.7109375 C105.210561,72.0390491 102.808241,70.2109424 100.370729,69.2265625 C97.9332166,68.2421826 94.8629348,67.75 91.1597913,67.75 Z M103.112916,24.4375 L83.8472913,24.4375 L83.8472913,52.7734375 L102.550416,52.7734375 C107.566066,52.7734375 111.784774,52.3398481 115.206666,51.4726562 C118.628558,50.6054644 121.241814,49.1289167 123.04651,47.0429688 C124.851207,44.9570208 125.753541,42.0859558 125.753541,38.4296875 C125.753541,35.5702982 125.026986,33.0507921 123.573854,30.8710938 C122.120722,28.6913954 120.105117,27.0625054 117.526979,25.984375 C115.089467,24.9531198 110.284827,24.4375 103.112916,24.4375 Z M230.830697,45.9782455 L238.581666,73.65625 C238.581666,78.3437734 238.38245,82.3281086 237.98401,85.609375 C237.585571,88.8906414 236.683236,92.2187331 235.276979,95.59375 C232.933217,101.265653 229.066068,105.683578 223.675416,108.847656 C218.284764,112.011735 211.72233,113.59375 203.987916,113.59375 C197.003506,113.59375 191.179346,112.492199 186.51526,110.289062 C181.851174,108.085926 178.089493,104.523462 175.230104,99.6015625 C173.730096,96.9765494 172.511359,93.9531421 171.573854,90.53125 C170.636349,87.1093579 170.167604,83.851578 170.167604,80.7578125 C170.167604,77.4765461 171.081657,74.9687587 172.909791,73.234375 C174.737925,71.4999913 177.081652,70.6328125 179.941041,70.6328125 C182.70668,70.6328125 184.792597,71.4296795 186.198854,73.0234375 C187.605111,74.6171955 188.683225,77.1015456 189.433229,80.4765625 C190.230108,84.0859555 191.026975,86.9687392 191.823854,89.125 C192.620733,91.2812608 193.956657,93.1328048 195.831666,94.6796875 C197.706676,96.2265702 200.378524,97 203.847291,97 C213.081712,97 217.698854,90.2266302 217.698854,76.6796875 L217.698854,19.65625 C217.698854,15.4374789 219.294346,19.750685 221.145918,17.6412995 C222.997489,15.5319139 223.69753,21.9456457 226.885046,21.9456457 C230.119437,21.9456457 228.93225,26.6514751 230.830697,28.7608606 C232.729144,30.8702461 230.830697,41.7594744 230.830697,45.9782455 Z M285.721085,39.5045881 C285.721085,39.5045881 291.833046,30.6384754 293.509518,35.6022444 C299.614296,53.6775379 311.823854,89.828125 311.823854,89.828125 C311.823854,89.828125 324.760789,51.3669655 331.229257,32.1363857 C332.565477,28.1638405 335.237916,20.21875 335.237916,20.21875 C336.456672,16.5624817 337.370726,14.0195384 337.980104,12.5898437 C338.589482,11.1601491 336.573847,18.9664835 337.980104,17.8180402 C339.386361,16.669597 333.100328,25.4690024 335.53784,25.4690024 C337.319099,25.4690024 338.971426,25.9143105 340.494871,26.8049399 C342.018317,27.6955694 343.213617,28.8791513 344.080809,30.3557212 C344.948001,31.8322911 345.38159,33.3205574 345.38159,34.8205649 C345.38159,35.8518201 344.4334,34.7936446 344.152149,35.9889631 C343.870898,37.1842816 343.519339,38.3561449 343.097461,39.5045881 C342.675584,40.6530314 342.253714,41.8366133 341.831836,43.0553694 C341.831836,43.0553694 348.080746,42.3826123 345.185754,50.1950122 L328.909791,94.1171875 C328.019162,96.6953254 327.128546,99.1445196 326.237916,101.464844 C325.347287,103.785168 324.316047,105.82421 323.144166,107.582031 C321.972285,109.339853 320.413707,110.781244 318.468385,111.90625 C316.523063,113.031256 314.14418,113.59375 311.331666,113.59375 C308.519152,113.59375 306.14027,113.042974 304.194948,111.941406 C302.249625,110.839838 300.679329,109.386728 299.48401,107.582031 C298.288692,105.777335 297.245733,103.726574 296.355104,101.429687 C295.464474,99.132801 294.573858,96.6953254 293.683229,94.1171875 L278.303116,52.2515512 C275.250133,43.9411383 281.185929,46.4303694 281.185929,46.4303694 C280.764052,45.2116133 280.330462,44.0163127 279.885147,42.8444319 C279.439833,41.672551 279.064836,40.4069387 278.760147,39.0475569 C278.455458,37.6881751 278.303116,36.5397491 278.303116,35.6022444 C278.303116,33.2116074 279.264044,31.0319417 281.185929,29.0631819 C283.107813,27.094422 279.905858,39.0475569 282.812123,39.0475569 C286.37464,39.0475569 279.709359,26.8834835 281.185929,29.0631819 C282.662498,31.2428803 284.174202,34.7233142 285.721085,39.5045881 Z M399.550416,20.7109375 C399.550416,20.7109375 402.67936,29.975251 404.243832,34.6074077 C410.46061,53.0143135 422.894166,89.828125 422.894166,89.828125 L446.308229,20.21875 C447.526985,16.5624817 448.441038,14.0195384 449.050416,12.5898438 C449.659794,11.1601491 450.667597,9.87109949 452.073854,8.72265625 C453.480111,7.57421301 455.401967,7 457.839479,7 C459.620738,7 461.273065,7.44530805 462.79651,8.3359375 C464.319955,9.22656695 465.515256,10.4101489 466.382448,11.8867188 C467.249639,13.3632886 467.683229,14.851555 467.683229,16.3515625 C467.683229,17.3828177 467.542605,18.4960878 467.261354,19.6914062 C466.980102,20.8867247 466.628543,22.058588 466.206666,23.2070312 C465.784789,24.3554745 465.362918,25.5390564 464.941041,26.7578125 L439.980104,94.1171875 C439.089474,96.6953254 438.198858,99.1445196 437.308229,101.464844 C436.417599,103.785168 435.38636,105.82421 434.214479,107.582031 C433.042598,109.339853 431.48402,110.781244 429.538698,111.90625 C427.593375,113.031256 425.214493,113.59375 422.401979,113.59375 C419.589465,113.59375 417.210582,113.042974 415.26526,111.941406 C413.319938,110.839838 411.749641,109.386728 410.554323,107.582031 C409.359004,105.777335 408.316046,103.726574 407.425416,101.429688 C406.534787,99.132801 405.644171,96.6953254 404.753541,94.1171875 L392.498532,60.7582784 C388.403847,49.6122897 394.477452,45.4355327 394.477452,45.4355327 C394.055575,44.2167766 393.621986,43.0214761 393.176671,41.8495952 C392.731356,40.6777143 392.35636,39.412102 392.051671,38.0527202 C391.746982,36.6933384 391.59464,35.5449124 391.59464,34.6074077 C391.59464,32.2167707 392.555568,30.037105 394.477452,28.0683452 C396.399337,26.0995853 394.006653,24.4231477 396.912917,24.4231477 C400.475435,24.4231477 402.994941,25.5129806 404.471511,27.692679 C405.948081,29.8723774 398.003534,15.9296636 399.550416,20.7109375 Z" id="path-1"></path>
        <mask id="mask-2" maskContentUnits="userSpaceOnUse" maskUnits="objectBoundingBox" x="0" y="0" width="417.400916" height="106.59375" fill="white">
            <use xlink:href="#path-1"></use>
        </mask>
    </defs>
    <g id="Page-1" stroke="none" stroke-width="1" fill="none" fill-rule="evenodd">
        <g id="Artboard">
            <use id="RJVV-Copy" stroke="#000000" mask="url(#mask-2)" stroke-width="2" xlink:href="#path-1"></use>
            <path d="M36.1953125,67.75 L28.8828125,67.75 L28.8828125,100.867188 C28.8828125,105.226584 27.9218846,108.43749 26,110.5 C24.0781154,112.56251 21.570328,113.59375 18.4765625,113.59375 C15.1484209,113.59375 12.5703216,112.515636 10.7421875,110.359375 C8.91405336,108.203114 8,105.039083 8,100.867188 L8,21.5546875 C8,17.054665 9.00780242,13.7968851 11.0234375,11.78125 C13.0390726,9.76561492 16.2968525,8.7578125 20.796875,8.7578125 L54.7578125,8.7578125 C59.4453359,8.7578125 63.4531084,8.95702926 66.78125,9.35546875 C70.1093916,9.75390824 73.1093616,10.5624939 75.78125,11.78125 C79.0156412,13.1406318 81.8749876,15.0859248 84.359375,17.6171875 C86.8437624,20.1484502 88.7304623,23.089827 90.0195312,26.4414062 C91.3086002,29.7929855 91.953125,33.3437313 91.953125,37.09375 C91.953125,44.7812884 89.7851779,50.921852 85.4492188,55.515625 C81.1132596,60.109398 74.5391066,63.3671779 65.7265625,65.2890625 C69.429706,67.2578223 72.9687331,70.1640433 76.34375,74.0078125 C79.7187669,77.8515817 82.7304555,81.9413846 85.3789062,86.2773438 C88.027357,90.6133029 90.0898364,94.5273263 91.5664062,98.0195312 C93.0429761,101.511736 93.78125,103.914056 93.78125,105.226562 C93.78125,106.585944 93.3476606,107.933587 92.4804688,109.269531 C91.6132769,110.605475 90.429695,111.660152 88.9296875,112.433594 C87.42968,113.207035 85.6953223,113.59375 83.7265625,113.59375 C81.3828008,113.59375 79.4140705,113.042974 77.8203125,111.941406 C76.2265545,110.839838 74.8554745,109.445321 73.7070312,107.757812 C72.558588,106.070304 71.0000098,103.585954 69.03125,100.304688 L60.6640625,86.3828125 C57.6640475,81.273412 54.9804806,77.3828259 52.6132812,74.7109375 C50.2460819,72.0390491 47.8437622,70.2109424 45.40625,69.2265625 C42.9687378,68.2421826 39.898456,67.75 36.1953125,67.75 Z M48.1484375,24.4375 L28.8828125,24.4375 L28.8828125,52.7734375 L47.5859375,52.7734375 C52.6015876,52.7734375 56.8202954,52.3398481 60.2421875,51.4726562 C63.6640796,50.6054644 66.2773347,49.1289167 68.0820312,47.0429688 C69.8867278,44.9570208 70.7890625,42.0859558 70.7890625,38.4296875 C70.7890625,35.5702982 70.0625073,33.0507921 68.609375,30.8710938 C67.1562427,28.6913954 65.1406379,27.0625054 62.5625,25.984375 C60.1249878,24.9531198 55.3203484,24.4375 48.1484375,24.4375 Z M183.617188,19.65625 L183.617188,73.65625 C183.617188,78.3437734 183.417971,82.3281086 183.019531,85.609375 C182.621092,88.8906414 181.718757,92.2187331 180.3125,95.59375 C177.968738,101.265653 174.101589,105.683578 168.710938,108.847656 C163.320286,112.011735 156.757851,113.59375 149.023438,113.59375 C142.039028,113.59375 136.214867,112.492199 131.550781,110.289062 C126.886695,108.085926 123.125014,104.523462 120.265625,99.6015625 C118.765618,96.9765494 117.54688,93.9531421 116.609375,90.53125 C115.67187,87.1093579 115.203125,83.851578 115.203125,80.7578125 C115.203125,77.4765461 116.117178,74.9687587 117.945312,73.234375 C119.773447,71.4999913 122.117173,70.6328125 124.976562,70.6328125 C127.742201,70.6328125 129.828118,71.4296795 131.234375,73.0234375 C132.640632,74.6171955 133.718746,77.1015456 134.46875,80.4765625 C135.265629,84.0859555 136.062496,86.9687392 136.859375,89.125 C137.656254,91.2812608 138.992178,93.1328048 140.867188,94.6796875 C142.742197,96.2265702 145.414045,97 148.882812,97 C158.117234,97 162.734375,90.2266302 162.734375,76.6796875 L162.734375,19.65625 C162.734375,15.4374789 163.660147,12.273448 165.511719,10.1640625 C167.363291,8.05467695 169.882797,7 173.070312,7 C176.304704,7 178.871084,8.05467695 180.769531,10.1640625 C182.667978,12.273448 183.617188,15.4374789 183.617188,19.65625 Z M233.515625,20.7109375 L256.859375,89.828125 L280.273438,20.21875 C281.492194,16.5624817 282.406247,14.0195384 283.015625,12.5898438 C283.625003,11.1601491 284.632805,9.87109949 286.039062,8.72265625 C287.44532,7.57421301 289.367175,7 291.804688,7 C293.585946,7 295.238274,7.44530805 296.761719,8.3359375 C298.285164,9.22656695 299.480464,10.4101489 300.347656,11.8867188 C301.214848,13.3632886 301.648438,14.851555 301.648438,16.3515625 C301.648438,17.3828177 301.507814,18.4960878 301.226562,19.6914062 C300.945311,20.8867247 300.593752,22.058588 300.171875,23.2070312 C299.749998,24.3554745 299.328127,25.5390564 298.90625,26.7578125 L273.945312,94.1171875 C273.054683,96.6953254 272.164067,99.1445196 271.273438,101.464844 C270.382808,103.785168 269.351568,105.82421 268.179688,107.582031 C267.007807,109.339853 265.449228,110.781244 263.503906,111.90625 C261.558584,113.031256 259.179702,113.59375 256.367188,113.59375 C253.554673,113.59375 251.175791,113.042974 249.230469,111.941406 C247.285147,110.839838 245.71485,109.386728 244.519531,107.582031 C243.324213,105.777335 242.281254,103.726574 241.390625,101.429688 C240.499996,99.132801 239.609379,96.6953254 238.71875,94.1171875 L214.179688,27.3203125 C213.75781,26.1015564 213.324221,24.9062559 212.878906,23.734375 C212.433592,22.5624941 212.058595,21.2968818 211.753906,19.9375 C211.449217,18.5781182 211.296875,17.4296922 211.296875,16.4921875 C211.296875,14.1015505 212.257803,11.9218848 214.179688,9.953125 C216.101572,7.98436516 218.51561,7 221.421875,7 C224.984393,7 227.503899,8.08983285 228.980469,10.2695312 C230.457039,12.4492296 231.968742,15.9296636 233.515625,20.7109375 Z M344.585938,20.7109375 L367.929688,89.828125 L391.34375,20.21875 C392.562506,16.5624817 393.476559,14.0195384 394.085938,12.5898438 C394.695316,11.1601491 395.703118,9.87109949 397.109375,8.72265625 C398.515632,7.57421301 400.437488,7 402.875,7 C404.656259,7 406.308586,7.44530805 407.832031,8.3359375 C409.355476,9.22656695 410.550777,10.4101489 411.417969,11.8867188 C412.285161,13.3632886 412.71875,14.851555 412.71875,16.3515625 C412.71875,17.3828177 412.578126,18.4960878 412.296875,19.6914062 C412.015624,20.8867247 411.664065,22.058588 411.242188,23.2070312 C410.82031,24.3554745 410.39844,25.5390564 409.976562,26.7578125 L385.015625,94.1171875 C384.124996,96.6953254 383.234379,99.1445196 382.34375,101.464844 C381.453121,103.785168 380.421881,105.82421 379.25,107.582031 C378.078119,109.339853 376.519541,110.781244 374.574219,111.90625 C372.628897,113.031256 370.250014,113.59375 367.4375,113.59375 C364.624986,113.59375 362.246103,113.042974 360.300781,111.941406 C358.355459,110.839838 356.785162,109.386728 355.589844,107.582031 C354.394525,105.777335 353.351567,103.726574 352.460938,101.429688 C351.570308,99.132801 350.679692,96.6953254 349.789062,94.1171875 L325.25,27.3203125 C324.828123,26.1015564 324.394533,24.9062559 323.949219,23.734375 C323.503904,22.5624941 323.128908,21.2968818 322.824219,19.9375 C322.51953,18.5781182 322.367188,17.4296922 322.367188,16.4921875 C322.367188,14.1015505 323.328115,11.9218848 325.25,9.953125 C327.171885,7.98436516 329.585923,7 332.492188,7 C336.054705,7 338.574211,8.08983285 340.050781,10.2695312 C341.527351,12.4492296 343.039055,15.9296636 344.585938,20.7109375 Z" id="RJVV" fill="#000000"></path>
        </g>
    </g>
</svg>